<?xml version="1.0" standalone="no"?><!DOCTYPE svg PUBLIC "-//W3C//DTD SVG 1.1//EN" "http://www.w3.org/Graphics/SVG/1.1/DTD/svg11.dtd"><svg class="icon" width="32px" height="32.00px" viewBox="0 0 1024 1024" version="1.1" xmlns="http://www.w3.org/2000/svg"><path d="M775.2 224.7C689 206.8 622.8 232.6 599 333.4c-12.9 54.6-28.3 154.1-135.4 142.9-39.6-4.2-139.9-168.7-248.7-180.8C150.8 288.4 45 310.9 77 504.2l540.2 89.5 158-369z" fill="#D0BF91" /><path d="M621.1 600.4l-5-0.8L71.8 510l-0.8-4.6c-14.2-83.7-3.7-144.9 30.8-181.2 35.4-37.5 86.6-37.9 114.1-35 69.6 7.9 135.8 76.2 184.1 125.8 26.7 27.5 51.6 53.3 64.1 54.6 95 10 113.7-72.9 126.2-127.4 0.8-3.7 1.7-7.1 2.5-10.4 22.5-95.8 84.1-133.7 183.3-113.3l7.5 1.7-162.5 380.2zM83 499.1l530.6 87.5 152.9-356.9c-87.9-15.8-140.8 18.7-161.2 105.4-0.8 3.3-1.7 6.7-2.5 10.4-12.1 52.5-31.7 138.3-122.9 138.3-5.4 0-10.8-0.4-16.7-0.8-17.5-1.7-40.4-25.4-72.1-58.3-47.1-48.3-111.2-115-176.6-122-25-2.9-72.1-2.5-103.7 31.2-30.7 32-39.9 87.8-27.8 165.2z" fill="#42210B" /><path d="M799.4 224.3c-30-8.3-65.8-12.5-93.7 4.6-27.5 16.7-51.6 50-65.8 77.9-17.5 34.6-21.2 71.6-32.9 107.5-13.3 40.8-46.2 59.1-87.9 60-44.1 0.8-78.3-11.2-111.2-40.8-29.2-26.2-55.8-54.1-87-77.9-30.8-23.7-61.6-45.8-101.6-50-32.5-3.3-64.6 2.5-91.2 22.1-27.5 20-44.1 43.7-53.3 76.2-7.5 26.7-13.7 59.6-5.8 86.6 6.7 23.3 42.9 13.3 36.2-10-5.8-20.4 0.4-47.1 5.8-66.6 7.5-27.1 22.5-47.5 47.1-61.2 68.3-38.7 139.9 28.7 186.2 72.1 24.2 22.5 46.6 47.5 75 64.6 29.6 17.9 65 22.9 99.1 22.1 32.1-0.4 64.6-8.7 88.7-30 24.6-21.7 34.6-51.6 41.7-82.5 4.6-20 9.2-40.4 16.7-59.6 7.9-19.6 19.6-35 32.1-51.6 10-12.9 21.2-27.1 37.5-31.2 17.5-4.6 36.7-0.8 54.1 3.7 23.5 6.9 33.5-29.4 10.2-36z" fill="#582C00" opacity=".71" /><path d="M638.6 373.8C669.8 218 795.2 188 869.4 267.6c202.8 217.8-77.9 521.5-266.6 544C373.3 839-5.7 590.4 87.6 410.4c127.4-245.7 296.5 77.1 386.9 83.3 157.4 10.9 159.9-100.3 164.1-119.9z" fill="#CEBA7D" /><path d="M567.8 819.8c-157 0-370.7-107.5-460.2-237C64.3 520 55.1 459.6 82.2 407.5c29.2-56.6 62.5-87.5 101.2-94.1 65.8-11.7 132 49.6 190.3 103.3 38.7 35.4 75 69.1 101.2 70.8 139.5 9.6 152-79.6 156.2-108.7 0.4-2.5 0.8-5 0.8-6.2C647.8 293.4 689 238.8 745.2 223c45-12.9 92.9 2.1 128.3 40 91.6 98.3 79.6 204.1 53.3 275.3-55.4 150.8-212 266.1-323.6 279.1-11.2 1.6-23.3 2.4-35.4 2.4zM200 324.6c-4.6 0-9.6 0.4-14.2 1.2-34.6 6.2-65 34.6-92.5 87.5-31.2 60-3.7 121.2 24.6 162.4 94.6 136.7 330 248.3 484.5 230 108.3-12.9 259.9-125 313.6-271.1 25-67.9 36.2-168.7-50.8-262.4-32.1-34.6-75.4-48.3-115.8-36.7-51.6 14.6-89.5 65.8-104.5 139.9-0.4 1.2-0.4 3.3-0.8 5.8-2.1 15.4-6.7 47.9-30 75-28.7 33.7-75.4 48.7-139.5 44.1-30.8-2.1-67.1-35.4-108.7-74.1-52.6-48.3-110.5-101.6-165.9-101.6z" fill="#42210B" /></svg>